<?xml version="1.0" encoding="UTF-8" standalone="yes"?><svg xmlns="http://www.w3.org/2000/svg" xmlns:xlink="http://www.w3.org/1999/xlink" height="544px" style="width:755px;height:544px;" version="1.1" viewBox="0 0 755 544" width="755px"><defs><filter height="300%" id="f1" width="300%" x="-1" y="-1"><feGaussianBlur result="blurOut" stdDeviation="2.0"/><feColorMatrix in="blurOut" result="blurOut2" type="matrix" values="0 0 0 0 0 0 0 0 0 0 0 0 0 0 0 0 0 0 .4 0"/><feOffset dx="4.0" dy="4.0" in="blurOut2" result="blurOut3"/><feBlend in="SourceGraphic" in2="blurOut3" mode="normal"/></filter></defs><g><rect fill="#FEFECE" filter="url(#f1)" height="124.8281" style="stroke: #A80036; stroke-width: 1.5;" width="259" x="7" y="91"/><ellipse cx="111.75" cy="107" fill="#ADD1B2" rx="11" ry="11" style="stroke: #A80036; stroke-width: 1.0;"/><path d="M114.25,112.9531 Q113.6875,113.2344 113.0625,113.3672 Q112.4375,113.5 111.75,113.5 Q109.3281,113.5 108.0391,111.8281 Q106.75,110.1563 106.75,107 Q106.75,103.8438 108.0391,102.1719 Q109.3281,100.5 111.75,100.5 Q112.4375,100.5 113.0703,100.6328 Q113.7031,100.7656 114.25,101.0469 L114.25,103.6875 Q113.5781,103.0781 112.9453,102.7891 Q112.3125,102.5 111.6563,102.5 Q110.2188,102.5 109.4844,103.6406 Q108.75,104.7813 108.75,107.0156 Q108.75,109.2344 109.4844,110.3672 Q110.2188,111.5 111.6563,111.5 Q112.3125,111.5 112.9453,111.2188 Q113.5781,110.9375 114.25,110.3125 L114.25,112.9531 Z "/><text fill="#000000" font-family="sans-serif" font-size="12" lengthAdjust="spacingAndGlyphs" textLength="41" x="132.25" y="111.1543">Events</text><line style="stroke: #A80036; stroke-width: 1.5;" x1="8" x2="265" y1="123" y2="123"/><line style="stroke: #A80036; stroke-width: 1.5;" x1="8" x2="265" y1="131" y2="131"/><rect fill="#F24D5C" height="6" style="stroke: #C82930; stroke-width: 1.0;" width="6" x="15" y="139.9023"/><text fill="#000000" font-family="sans-serif" font-size="11" lengthAdjust="spacingAndGlyphs" textLength="101" x="27" y="145.2104">_handleEvent(ev)</text><ellipse cx="18" cy="155.707" fill="#84BE84" rx="3" ry="3" style="stroke: #038048; stroke-width: 1.0;"/><text fill="#000000" font-family="sans-serif" font-size="11" lengthAdjust="spacingAndGlyphs" textLength="208" x="27" y="158.0151">addEventHandler(type, alias, action)</text><ellipse cx="18" cy="168.5117" fill="#84BE84" rx="3" ry="3" style="stroke: #038048; stroke-width: 1.0;"/><text fill="#000000" font-family="sans-serif" font-size="11" lengthAdjust="spacingAndGlyphs" textLength="109" x="27" y="170.8198">off(event, listener)</text><ellipse cx="18" cy="181.3164" fill="#84BE84" rx="3" ry="3" style="stroke: #038048; stroke-width: 1.0;"/><text fill="#000000" font-family="sans-serif" font-size="11" lengthAdjust="spacingAndGlyphs" textLength="108" x="27" y="183.6245">on(event, listener)</text><ellipse cx="18" cy="194.1211" fill="#84BE84" rx="3" ry="3" style="stroke: #038048; stroke-width: 1.0;"/><text fill="#000000" font-family="sans-serif" font-size="11" lengthAdjust="spacingAndGlyphs" textLength="233" x="27" y="196.4292">removeEventHandler(type, alias, action)</text><ellipse cx="18" cy="206.9258" fill="#84BE84" rx="3" ry="3" style="stroke: #038048; stroke-width: 1.0;"/><text fill="#000000" font-family="sans-serif" font-size="11" lengthAdjust="spacingAndGlyphs" textLength="165" x="27" y="209.2339">removeEventHandlers(type)</text><rect fill="#FEFECE" filter="url(#f1)" height="291.2891" style="stroke: #A80036; stroke-width: 1.5;" width="203" x="297" y="8"/><ellipse cx="376.25" cy="24" fill="#ADD1B2" rx="11" ry="11" style="stroke: #A80036; stroke-width: 1.0;"/><path d="M378.75,29.9531 Q378.1875,30.2344 377.5625,30.3672 Q376.9375,30.5 376.25,30.5 Q373.8281,30.5 372.5391,28.8281 Q371.25,27.1563 371.25,24 Q371.25,20.8438 372.5391,19.1719 Q373.8281,17.5 376.25,17.5 Q376.9375,17.5 377.5703,17.6328 Q378.2031,17.7656 378.75,18.0469 L378.75,20.6875 Q378.0781,20.0781 377.4453,19.7891 Q376.8125,19.5 376.1563,19.5 Q374.7188,19.5 373.9844,20.6406 Q373.25,21.7813 373.25,24.0156 Q373.25,26.2344 373.9844,27.3672 Q374.7188,28.5 376.1563,28.5 Q376.8125,28.5 377.4453,28.2188 Q378.0781,27.9375 378.75,27.3125 L378.75,29.9531 Z "/><text fill="#000000" font-family="sans-serif" font-size="12" lengthAdjust="spacingAndGlyphs" textLength="37" x="396.75" y="28.1543">Teflon</text><line style="stroke: #A80036; stroke-width: 1.5;" x1="298" x2="499" y1="40" y2="40"/><rect fill="none" height="6" style="stroke: #C82930; stroke-width: 1.0;" width="6" x="305" y="48.9023"/><text fill="#000000" font-family="sans-serif" font-size="11" lengthAdjust="spacingAndGlyphs" textLength="62" x="317" y="54.2104">_prototype</text><ellipse cx="308" cy="64.707" fill="none" rx="3" ry="3" style="stroke: #038048; stroke-width: 1.0;"/><text fill="#000000" font-family="sans-serif" font-size="11" lengthAdjust="spacingAndGlyphs" textLength="14" x="317" y="67.0151">dp</text><ellipse cx="308" cy="77.5117" fill="none" rx="3" ry="3" style="stroke: #038048; stroke-width: 1.0;"/><text fill="#000000" font-family="sans-serif" font-size="11" lengthAdjust="spacingAndGlyphs" textLength="51" x="317" y="79.8198">handlers</text><ellipse cx="308" cy="90.3164" fill="none" rx="3" ry="3" style="stroke: #038048; stroke-width: 1.0;"/><text fill="#000000" font-family="sans-serif" font-size="11" lengthAdjust="spacingAndGlyphs" textLength="28" x="317" y="92.6245">input</text><ellipse cx="308" cy="103.1211" fill="none" rx="3" ry="3" style="stroke: #038048; stroke-width: 1.0;"/><text fill="#000000" font-family="sans-serif" font-size="11" lengthAdjust="spacingAndGlyphs" textLength="32" x="317" y="105.4292">maps</text><ellipse cx="308" cy="115.9258" fill="none" rx="3" ry="3" style="stroke: #038048; stroke-width: 1.0;"/><text fill="#000000" font-family="sans-serif" font-size="11" lengthAdjust="spacingAndGlyphs" textLength="30" x="317" y="118.2339">state</text><line style="stroke: #A80036; stroke-width: 1.5;" x1="298" x2="499" y1="124.8281" y2="124.8281"/><rect fill="#F24D5C" height="6" style="stroke: #C82930; stroke-width: 1.0;" width="6" x="305" y="133.7305"/><text fill="#000000" font-family="sans-serif" font-size="11" lengthAdjust="spacingAndGlyphs" textLength="177" x="317" y="139.0386">_fill(map, data, append, ptpath)</text><ellipse cx="308" cy="149.5352" fill="#84BE84" rx="3" ry="3" style="stroke: #038048; stroke-width: 1.0;"/><text fill="#000000" font-family="sans-serif" font-size="11" lengthAdjust="spacingAndGlyphs" textLength="87" x="317" y="151.8433">constructor(dp)</text><ellipse cx="308" cy="162.3398" fill="#84BE84" rx="3" ry="3" style="stroke: #038048; stroke-width: 1.0;"/><text fill="#000000" font-family="sans-serif" font-size="11" lengthAdjust="spacingAndGlyphs" textLength="57" x="317" y="164.6479">create(el)</text><ellipse cx="308" cy="175.1445" fill="#84BE84" rx="3" ry="3" style="stroke: #038048; stroke-width: 1.0;"/><text fill="#000000" font-family="sans-serif" font-size="11" lengthAdjust="spacingAndGlyphs" textLength="136" x="317" y="177.4526">fill(name, data, append)</text><ellipse cx="308" cy="187.9492" fill="#84BE84" rx="3" ry="3" style="stroke: #038048; stroke-width: 1.0;"/><text fill="#000000" font-family="sans-serif" font-size="11" lengthAdjust="spacingAndGlyphs" textLength="75" x="317" y="190.2573">getElement()</text><ellipse cx="308" cy="200.7539" fill="#84BE84" rx="3" ry="3" style="stroke: #038048; stroke-width: 1.0;"/><text fill="#000000" font-family="sans-serif" font-size="11" lengthAdjust="spacingAndGlyphs" textLength="125" x="317" y="203.062">link(name, type, map)</text><ellipse cx="308" cy="213.5586" fill="#84BE84" rx="3" ry="3" style="stroke: #038048; stroke-width: 1.0;"/><text fill="#000000" font-family="sans-serif" font-size="11" lengthAdjust="spacingAndGlyphs" textLength="57" x="317" y="215.8667">load(map)</text><ellipse cx="308" cy="226.3633" fill="#84BE84" rx="3" ry="3" style="stroke: #038048; stroke-width: 1.0;"/><text fill="#000000" font-family="sans-serif" font-size="11" lengthAdjust="spacingAndGlyphs" textLength="48" x="317" y="228.6714">render()</text><ellipse cx="308" cy="239.168" fill="#84BE84" rx="3" ry="3" style="stroke: #038048; stroke-width: 1.0;"/><text fill="#000000" font-family="sans-serif" font-size="11" lengthAdjust="spacingAndGlyphs" textLength="48" x="317" y="241.4761">render()</text><ellipse cx="308" cy="251.9727" fill="#84BE84" rx="3" ry="3" style="stroke: #038048; stroke-width: 1.0;"/><text fill="#000000" font-family="sans-serif" font-size="11" lengthAdjust="spacingAndGlyphs" textLength="102" x="317" y="254.2808">setDataMap(map)</text><ellipse cx="308" cy="264.7773" fill="#84BE84" rx="3" ry="3" style="stroke: #038048; stroke-width: 1.0;"/><text fill="#000000" font-family="sans-serif" font-size="11" lengthAdjust="spacingAndGlyphs" textLength="86" x="317" y="267.0854">setElement(el)</text><ellipse cx="308" cy="277.582" fill="#84BE84" rx="3" ry="3" style="stroke: #038048; stroke-width: 1.0;"/><text fill="#000000" font-family="sans-serif" font-size="11" lengthAdjust="spacingAndGlyphs" textLength="82" x="317" y="279.8901">setHTML(html)</text><ellipse cx="308" cy="290.3867" fill="#84BE84" rx="3" ry="3" style="stroke: #038048; stroke-width: 1.0;"/><text fill="#000000" font-family="sans-serif" font-size="11" lengthAdjust="spacingAndGlyphs" textLength="130" x="317" y="292.6948">setTemplateMap(map)</text><rect fill="#FEFECE" filter="url(#f1)" height="252.875" style="stroke: #A80036; stroke-width: 1.5;" width="209" x="537.5" y="27"/><ellipse cx="621.75" cy="43" fill="#ADD1B2" rx="11" ry="11" style="stroke: #A80036; stroke-width: 1.0;"/><path d="M624.25,48.9531 Q623.6875,49.2344 623.0625,49.3672 Q622.4375,49.5 621.75,49.5 Q619.3281,49.5 618.0391,47.8281 Q616.75,46.1563 616.75,43 Q616.75,39.8438 618.0391,38.1719 Q619.3281,36.5 621.75,36.5 Q622.4375,36.5 623.0703,36.6328 Q623.7031,36.7656 624.25,37.0469 L624.25,39.6875 Q623.5781,39.0781 622.9453,38.7891 Q622.3125,38.5 621.6563,38.5 Q620.2188,38.5 619.4844,39.6406 Q618.75,40.7813 618.75,43.0156 Q618.75,45.2344 619.4844,46.3672 Q620.2188,47.5 621.6563,47.5 Q622.3125,47.5 622.9453,47.2188 Q623.5781,46.9375 624.25,46.3125 L624.25,48.9531 Z "/><text fill="#000000" font-family="sans-serif" font-size="12" lengthAdjust="spacingAndGlyphs" textLength="34" x="642.25" y="47.1543">State</text><line style="stroke: #A80036; stroke-width: 1.5;" x1="538.5" x2="745.5" y1="59" y2="59"/><ellipse cx="548.5" cy="70.9023" fill="none" rx="3" ry="3" style="stroke: #038048; stroke-width: 1.0;"/><text fill="#000000" font-family="sans-serif" font-size="11" lengthAdjust="spacingAndGlyphs" textLength="56" x="557.5" y="73.2104">attributes</text><ellipse cx="548.5" cy="83.707" fill="none" rx="3" ry="3" style="stroke: #038048; stroke-width: 1.0;"/><text fill="#000000" font-family="sans-serif" font-size="11" lengthAdjust="spacingAndGlyphs" textLength="41" x="557.5" y="86.0151">events</text><ellipse cx="548.5" cy="96.5117" fill="none" rx="3" ry="3" style="stroke: #038048; stroke-width: 1.0;"/><text fill="#000000" font-family="sans-serif" font-size="11" lengthAdjust="spacingAndGlyphs" textLength="46" x="557.5" y="98.8198">isActive</text><ellipse cx="548.5" cy="109.3164" fill="none" rx="3" ry="3" style="stroke: #038048; stroke-width: 1.0;"/><text fill="#000000" font-family="sans-serif" font-size="11" lengthAdjust="spacingAndGlyphs" textLength="33" x="557.5" y="111.6245">name</text><ellipse cx="548.5" cy="122.1211" fill="none" rx="3" ry="3" style="stroke: #038048; stroke-width: 1.0;"/><text fill="#000000" font-family="sans-serif" font-size="11" lengthAdjust="spacingAndGlyphs" textLength="25" x="557.5" y="124.4292">path</text><ellipse cx="548.5" cy="134.9258" fill="none" rx="3" ry="3" style="stroke: #038048; stroke-width: 1.0;"/><text fill="#000000" font-family="sans-serif" font-size="11" lengthAdjust="spacingAndGlyphs" textLength="33" x="557.5" y="137.2339">teflon</text><line style="stroke: #A80036; stroke-width: 1.5;" x1="538.5" x2="745.5" y1="143.8281" y2="143.8281"/><rect fill="#F24D5C" height="6" style="stroke: #C82930; stroke-width: 1.0;" width="6" x="545.5" y="152.7305"/><text fill="#000000" font-family="sans-serif" font-size="11" lengthAdjust="spacingAndGlyphs" textLength="135" x="557.5" y="158.0386">_activateEvent(change)</text><rect fill="#F24D5C" height="6" style="stroke: #C82930; stroke-width: 1.0;" width="6" x="545.5" y="165.5352"/><text fill="#000000" font-family="sans-serif" font-size="11" lengthAdjust="spacingAndGlyphs" textLength="141" x="557.5" y="170.8433">_applyPathToAttributes()</text><rect fill="#F24D5C" height="6" style="stroke: #C82930; stroke-width: 1.0;" width="6" x="545.5" y="178.3398"/><text fill="#000000" font-family="sans-serif" font-size="11" lengthAdjust="spacingAndGlyphs" textLength="159" x="557.5" y="183.6479">_applyPathToEvent(change)</text><rect fill="#F24D5C" height="6" style="stroke: #C82930; stroke-width: 1.0;" width="6" x="545.5" y="191.1445"/><text fill="#000000" font-family="sans-serif" font-size="11" lengthAdjust="spacingAndGlyphs" textLength="131" x="557.5" y="196.4526">_disableEvent(change)</text><rect fill="#F24D5C" height="6" style="stroke: #C82930; stroke-width: 1.0;" width="6" x="545.5" y="203.9492"/><text fill="#000000" font-family="sans-serif" font-size="11" lengthAdjust="spacingAndGlyphs" textLength="150" x="557.5" y="209.2573">_revertAttributes(change)</text><rect fill="#F24D5C" height="6" style="stroke: #C82930; stroke-width: 1.0;" width="6" x="545.5" y="216.7539"/><text fill="#000000" font-family="sans-serif" font-size="11" lengthAdjust="spacingAndGlyphs" textLength="132" x="557.5" y="222.062">_setAttributes(change)</text><ellipse cx="548.5" cy="232.5586" fill="#84BE84" rx="3" ry="3" style="stroke: #038048; stroke-width: 1.0;"/><text fill="#000000" font-family="sans-serif" font-size="11" lengthAdjust="spacingAndGlyphs" textLength="54" x="557.5" y="234.8667">activate()</text><ellipse cx="548.5" cy="245.3633" fill="#84BE84" rx="3" ry="3" style="stroke: #038048; stroke-width: 1.0;"/><text fill="#000000" font-family="sans-serif" font-size="11" lengthAdjust="spacingAndGlyphs" textLength="64" x="557.5" y="247.6714">clone(path)</text><ellipse cx="548.5" cy="258.168" fill="#84BE84" rx="3" ry="3" style="stroke: #038048; stroke-width: 1.0;"/><text fill="#000000" font-family="sans-serif" font-size="11" lengthAdjust="spacingAndGlyphs" textLength="183" x="557.5" y="260.4761">constructor(name, state, teflon)</text><ellipse cx="548.5" cy="270.9727" fill="#84BE84" rx="3" ry="3" style="stroke: #038048; stroke-width: 1.0;"/><text fill="#000000" font-family="sans-serif" font-size="11" lengthAdjust="spacingAndGlyphs" textLength="50" x="557.5" y="273.2808">disable()</text><rect fill="#FEFECE" filter="url(#f1)" height="99.2188" style="stroke: #A80036; stroke-width: 1.5;" width="258" x="6" y="397.5"/><ellipse cx="109.75" cy="413.5" fill="#ADD1B2" rx="11" ry="11" style="stroke: #A80036; stroke-width: 1.0;"/><path d="M112.25,419.4531 Q111.6875,419.7344 111.0625,419.8672 Q110.4375,420 109.75,420 Q107.3281,420 106.0391,418.3281 Q104.75,416.6563 104.75,413.5 Q104.75,410.3438 106.0391,408.6719 Q107.3281,407 109.75,407 Q110.4375,407 111.0703,407.1328 Q111.7031,407.2656 112.25,407.5469 L112.25,410.1875 Q111.5781,409.5781 110.9453,409.2891 Q110.3125,409 109.6563,409 Q108.2188,409 107.4844,410.1406 Q106.75,411.2813 106.75,413.5156 Q106.75,415.7344 107.4844,416.8672 Q108.2188,418 109.6563,418 Q110.3125,418 110.9453,417.7188 Q111.5781,417.4375 112.25,416.8125 L112.25,419.4531 Z "/><text fill="#000000" font-family="sans-serif" font-size="12" lengthAdjust="spacingAndGlyphs" textLength="46" x="130.25" y="417.6543">Repeat</text><line style="stroke: #A80036; stroke-width: 1.5;" x1="7" x2="263" y1="429.5" y2="429.5"/><line style="stroke: #A80036; stroke-width: 1.5;" x1="7" x2="263" y1="437.5" y2="437.5"/><ellipse cx="17" cy="449.4023" fill="#84BE84" rx="3" ry="3" style="stroke: #038048; stroke-width: 1.0;"/><text fill="#000000" font-family="sans-serif" font-size="11" lengthAdjust="spacingAndGlyphs" textLength="198" x="26" y="451.7104">createRows(base, path, rowCount)</text><ellipse cx="17" cy="462.207" fill="#84BE84" rx="3" ry="3" style="stroke: #038048; stroke-width: 1.0;"/><text fill="#000000" font-family="sans-serif" font-size="11" lengthAdjust="spacingAndGlyphs" textLength="222" x="26" y="464.5151">fillRows(base, def, data, start, append)</text><ellipse cx="17" cy="475.0117" fill="#84BE84" rx="3" ry="3" style="stroke: #038048; stroke-width: 1.0;"/><text fill="#000000" font-family="sans-serif" font-size="11" lengthAdjust="spacingAndGlyphs" textLength="232" x="26" y="477.3198">getInsertionRow(rowTpl, container, path)</text><ellipse cx="17" cy="487.8164" fill="#84BE84" rx="3" ry="3" style="stroke: #038048; stroke-width: 1.0;"/><text fill="#000000" font-family="sans-serif" font-size="11" lengthAdjust="spacingAndGlyphs" textLength="193" x="26" y="490.1245">repeat(pdef, data, cpath, append)</text><rect fill="#FEFECE" filter="url(#f1)" height="176.0469" style="stroke: #A80036; stroke-width: 1.5;" width="202" x="298" y="359"/><ellipse cx="375.75" cy="375" fill="#ADD1B2" rx="11" ry="11" style="stroke: #A80036; stroke-width: 1.0;"/><path d="M378.25,380.9531 Q377.6875,381.2344 377.0625,381.3672 Q376.4375,381.5 375.75,381.5 Q373.3281,381.5 372.0391,379.8281 Q370.75,378.1563 370.75,375 Q370.75,371.8438 372.0391,370.1719 Q373.3281,368.5 375.75,368.5 Q376.4375,368.5 377.0703,368.6328 Q377.7031,368.7656 378.25,369.0469 L378.25,371.6875 Q377.5781,371.0781 376.9453,370.7891 Q376.3125,370.5 375.6563,370.5 Q374.2188,370.5 373.4844,371.6406 Q372.75,372.7813 372.75,375.0156 Q372.75,377.2344 373.4844,378.3672 Q374.2188,379.5 375.6563,379.5 Q376.3125,379.5 376.9453,379.2188 Q377.5781,378.9375 378.25,378.3125 L378.25,380.9531 Z "/><text fill="#000000" font-family="sans-serif" font-size="12" lengthAdjust="spacingAndGlyphs" textLength="41" x="396.25" y="379.1543">States</text><line style="stroke: #A80036; stroke-width: 1.5;" x1="299" x2="499" y1="391" y2="391"/><line style="stroke: #A80036; stroke-width: 1.5;" x1="299" x2="499" y1="399" y2="399"/><ellipse cx="309" cy="410.9023" fill="#84BE84" rx="3" ry="3" style="stroke: #038048; stroke-width: 1.0;"/><text fill="#000000" font-family="sans-serif" font-size="11" lengthAdjust="spacingAndGlyphs" textLength="150" x="318" y="413.2104">activateState(name, path)</text><ellipse cx="309" cy="423.707" fill="#84BE84" rx="3" ry="3" style="stroke: #038048; stroke-width: 1.0;"/><text fill="#000000" font-family="sans-serif" font-size="11" lengthAdjust="spacingAndGlyphs" textLength="130" x="318" y="426.0151">addState(name, state)</text><ellipse cx="309" cy="436.5117" fill="#84BE84" rx="3" ry="3" style="stroke: #038048; stroke-width: 1.0;"/><text fill="#000000" font-family="sans-serif" font-size="11" lengthAdjust="spacingAndGlyphs" textLength="97" x="318" y="438.8198">disableAll(name)</text><ellipse cx="309" cy="449.3164" fill="#84BE84" rx="3" ry="3" style="stroke: #038048; stroke-width: 1.0;"/><text fill="#000000" font-family="sans-serif" font-size="11" lengthAdjust="spacingAndGlyphs" textLength="146" x="318" y="451.6245">disableState(name, path)</text><ellipse cx="309" cy="462.1211" fill="#84BE84" rx="3" ry="3" style="stroke: #038048; stroke-width: 1.0;"/><text fill="#000000" font-family="sans-serif" font-size="11" lengthAdjust="spacingAndGlyphs" textLength="123" x="318" y="464.4292">getState(name, path)</text><ellipse cx="309" cy="474.9258" fill="#84BE84" rx="3" ry="3" style="stroke: #038048; stroke-width: 1.0;"/><text fill="#000000" font-family="sans-serif" font-size="11" lengthAdjust="spacingAndGlyphs" textLength="125" x="318" y="477.2339">hasState(name, path)</text><ellipse cx="309" cy="487.7305" fill="#84BE84" rx="3" ry="3" style="stroke: #038048; stroke-width: 1.0;"/><text fill="#000000" font-family="sans-serif" font-size="11" lengthAdjust="spacingAndGlyphs" textLength="114" x="318" y="490.0386">inState(name, path)</text><ellipse cx="309" cy="500.5352" fill="#84BE84" rx="3" ry="3" style="stroke: #038048; stroke-width: 1.0;"/><text fill="#000000" font-family="sans-serif" font-size="11" lengthAdjust="spacingAndGlyphs" textLength="150" x="318" y="502.8433">removeState(name, path)</text><ellipse cx="309" cy="513.3398" fill="#84BE84" rx="3" ry="3" style="stroke: #038048; stroke-width: 1.0;"/><text fill="#000000" font-family="sans-serif" font-size="11" lengthAdjust="spacingAndGlyphs" textLength="106" x="318" y="515.6479">setStateMap(map)</text><ellipse cx="309" cy="526.1445" fill="#84BE84" rx="3" ry="3" style="stroke: #038048; stroke-width: 1.0;"/><text fill="#000000" font-family="sans-serif" font-size="11" lengthAdjust="spacingAndGlyphs" textLength="176" x="318" y="528.4526">toggleState(name, path, clear)</text></g></svg>